<?xml version="1.0" encoding="UTF-8" standalone="no"?>
<svg
   version="1.0"
   width="112.34471"
   height="21.828028"
   viewBox="0 95 1193.6626 218.28028"
   preserveAspectRatio="xMidYMid"
   id="svg56"
   sodipodi:docname="logo-mobile.svg"
   inkscape:version="1.2.2 (732a01da63, 2022-12-09)"
   xmlns:inkscape="http://www.inkscape.org/namespaces/inkscape"
   xmlns:sodipodi="http://sodipodi.sourceforge.net/DTD/sodipodi-0.dtd"
   xmlns="http://www.w3.org/2000/svg"
   xmlns:svg="http://www.w3.org/2000/svg">
   <defs
      id="defs60" />
   <sodipodi:namedview
      id="namedview58"
      pagecolor="#ffffff"
      bordercolor="#000000"
      borderopacity="0.25"
      inkscape:showpageshadow="2"
      inkscape:pageopacity="0.0"
      inkscape:pagecheckerboard="0"
      inkscape:deskcolor="#d1d1d1"
      showgrid="false"
      inkscape:zoom="8"
      inkscape:cx="52.125"
      inkscape:cy="15.9375"
      inkscape:window-width="1920"
      inkscape:window-height="1000"
      inkscape:window-x="1911"
      inkscape:window-y="-9"
      inkscape:window-maximized="1"
      inkscape:current-layer="svg56" />
   <metadata
      id="metadata2">
      Created by potrace 1.16, written by Peter Selinger 2001-2019
   </metadata>
   <g
      transform="matrix(0.1,0,0,-0.1,-166.6594,502.88223)"
      fill="#38957b"
      stroke="none"
      id="g54"
   >
      <path
         d="m 2740,4143 c -93,-35 -72,-167 27,-167 43,0 83,40 83,84 0,52 -65,100 -110,83 z"
         id="path4"
         />
      <path
         d="m 3249,3991 c -17,-18 -29,-40 -29,-56 0,-37 50,-85 89,-85 46,0 85,39 85,85 0,78 -89,112 -145,56 z"
         id="path6"
         />
      <path
         d="m 2239,3931 c -32,-33 -36,-58 -14,-100 24,-47 83,-56 129,-20 21,16 26,29 26,64 0,35 -5,48 -26,64 -38,30 -80,27 -115,-8 z"
         id="path8"
         />
      <path
         d="m 3665,3675 c -36,-35 -35,-96 1,-124 88,-70 194,41 115,120 -38,37 -82,39 -116,4 z"
         id="path10"
         />
      <path
         d="m 1876,3569 c -21,-16 -26,-29 -26,-64 0,-35 5,-48 26,-64 38,-30 80,-27 115,8 32,33 36,58 14,100 -24,47 -83,56 -129,20 z"
         id="path12"
         />
      <path
         d="m 4595,3520 c -209,-42 -365,-198 -365,-364 1,-105 52,-164 158,-180 l 44,-7 -23,38 c -35,56 -40,199 -9,271 21,48 97,132 120,132 7,0 10,-174 10,-525 v -525 h 115 115 v 585 585 l -62,-1 c -35,-1 -81,-5 -103,-9 z"
         id="path14"
         />
      <path
         d="m 6080,3519 c -55,-17 -87,-46 -117,-107 l -28,-57 -3,-492 -3,-491 -59,-22 c -114,-43 -169,-115 -156,-205 18,-119 163,-201 293,-166 57,16 96,51 124,113 l 24,53 3,468 3,467 h 54 c 54,0 55,0 55,30 0,30 -1,30 -55,30 h -55 v 88 c 0,96 11,129 52,151 39,22 78,6 93,-39 10,-31 16,-35 49,-38 l 38,-3 -7,33 c -14,64 -58,131 -107,161 -52,32 -139,44 -198,26 z M 5935,2239 c -7,-89 -18,-117 -53,-126 -56,-14 -105,51 -82,108 17,40 91,95 133,98 4,1 5,-35 2,-80 z"
         id="path16"
         />
      <path
         d="m 10490,3517 c -89,-25 -153,-79 -213,-180 -94,-156 -121,-493 -56,-702 55,-178 174,-277 351,-292 180,-15 350,72 415,213 42,92 11,113 -49,34 -22,-29 -55,-56 -93,-75 -50,-26 -70,-30 -134,-30 -92,0 -141,22 -188,84 -55,71 -75,154 -80,331 -5,167 9,290 47,397 53,151 149,206 226,129 30,-30 34,-40 34,-85 0,-29 -7,-68 -15,-88 -20,-47 -6,-63 57,-70 60,-7 88,17 95,80 12,106 -51,206 -153,241 -65,23 -187,29 -244,13 z"
         id="path18"
         />
      <path
         d="m 6534,3461 c -11,-5 -33,-23 -47,-41 -64,-75 -6,-200 93,-200 36,0 85,28 103,59 9,16 17,48 17,70 0,79 -94,143 -166,112 z"
         id="path20"
         />
      <path
         d="m 7984,3461 c -11,-5 -33,-23 -47,-41 -64,-75 -6,-200 93,-200 36,0 85,28 103,59 9,16 17,48 17,70 0,79 -94,143 -166,112 z"
         id="path22"
         />
      <path
         d="m 12940,3444 c -8,-1 -54,-8 -102,-14 l -88,-12 v -529 -529 h 115 114 l 3,289 c 3,274 4,291 24,317 28,38 47,48 77,40 55,-13 62,-40 67,-271 5,-201 6,-212 32,-267 39,-84 87,-113 188,-113 66,0 82,4 117,27 50,33 100,128 110,206 l 6,52 h -30 c -28,0 -32,-4 -42,-46 -21,-84 -88,-119 -142,-75 -24,19 -24,23 -29,243 -7,249 -14,283 -76,337 -75,67 -203,67 -273,2 l -31,-29 v 189 c 0,195 1,192 -40,183 z"
         id="path24"
         />
      <path
         d="m 8650,3384 c -8,-1 -54,-8 -102,-14 l -88,-12 v -109 -109 h -25 c -21,0 -25,-5 -25,-30 0,-25 4,-30 24,-30 h 24 l 5,-282 c 4,-309 9,-337 62,-394 56,-59 184,-70 274,-25 67,34 139,155 141,234 0,23 -4,27 -29,27 -25,0 -30,-4 -36,-37 -10,-53 -63,-103 -109,-103 -23,0 -43,7 -56,20 -19,19 -20,33 -20,290 v 270 h 45 c 43,0 45,1 45,30 0,29 -2,30 -45,30 h -45 v 125 c 0,128 0,128 -40,119 z"
         id="path26"
         />
      <path
         d="m 12360,3184 c -8,-1 -54,-8 -102,-14 -85,-12 -88,-13 -88,-39 -1,-81 -96,-417 -126,-442 -26,-21 -44,-66 -44,-109 0,-80 50,-154 134,-198 44,-23 63,-27 136,-27 66,0 95,5 130,21 57,27 220,163 260,217 l 31,42 -26,3 c -19,3 -39,-9 -78,-44 l -52,-47 -7,84 c -3,47 -27,163 -53,264 -26,99 -54,206 -62,238 -9,31 -21,56 -27,56 -6,-1 -18,-3 -26,-5 z m -95,-366 c 25,-96 38,-167 39,-215 1,-66 -2,-75 -25,-99 -30,-29 -90,-41 -131,-25 -16,6 -37,25 -48,43 -22,37 -27,59 -8,40 19,-19 55,-14 72,10 22,31 20,60 -5,92 l -22,28 37,116 c 20,64 36,125 36,135 0,9 4,17 9,17 4,0 25,-64 46,-142 z"
         id="path28"
         />
      <path
         d="m 5344,3139 c -18,-5 -46,-22 -63,-38 l -31,-29 v 34 34 h -115 -115 v -390 -390 h 115 114 l 3,289 c 3,274 4,291 24,317 28,38 47,48 77,40 55,-13 62,-40 67,-271 5,-205 6,-211 33,-267 16,-32 40,-66 55,-76 72,-51 183,-54 252,-8 47,31 98,128 107,204 l 6,52 h -30 c -27,0 -32,-4 -43,-45 -17,-61 -50,-95 -92,-95 -72,0 -78,20 -78,253 0,148 -4,206 -16,247 -34,116 -148,175 -270,139 z"
         id="path30"
         />
      <path
         d="m 7334,3139 c -18,-5 -46,-22 -63,-38 l -31,-29 v 34 34 h -115 -115 v -390 -390 h 115 114 l 3,289 c 3,274 4,291 24,317 28,38 47,48 77,40 55,-13 62,-40 67,-271 5,-205 6,-211 33,-267 16,-32 40,-66 55,-76 72,-51 183,-54 252,-8 47,31 98,128 107,204 l 6,52 h -30 c -27,0 -32,-4 -43,-45 -17,-61 -50,-95 -92,-95 -72,0 -78,20 -78,253 0,148 -4,206 -16,247 -34,116 -148,175 -270,139 z"
         id="path32"
         />
      <path
         d="m 9209,3134 c -145,-44 -237,-230 -226,-454 5,-115 32,-191 84,-245 57,-59 112,-79 218,-80 78,0 98,4 150,28 33,15 77,45 98,65 39,38 99,129 112,170 5,18 3,22 -17,22 -17,0 -35,-15 -61,-49 -50,-68 -111,-102 -190,-108 -105,-7 -167,45 -167,142 v 41 l 69,17 c 143,37 229,140 231,275 1,121 -76,193 -204,191 -28,0 -72,-7 -97,-15 z m 147,-72 c 21,-14 34,-51 34,-99 0,-94 -70,-188 -154,-209 l -29,-7 6,70 c 16,167 84,284 143,245 z"
         id="path34"
         />
      <path
         d="m 11282,3137 c -54,-17 -118,-82 -156,-157 -43,-86 -60,-184 -54,-312 4,-84 9,-106 37,-162 49,-99 134,-156 233,-156 73,0 151,48 185,114 l 15,29 18,-40 c 48,-108 193,-136 308,-60 53,36 107,129 118,205 6,41 6,42 -23,42 -26,0 -31,-5 -42,-42 -26,-86 -111,-128 -161,-78 -19,19 -20,33 -20,320 v 300 h -115 -115 v -32 -32 l -16,23 c -33,46 -131,64 -212,38 z m 202,-108 26,-20 v -205 c 0,-220 -6,-256 -51,-288 -29,-20 -78,-21 -106,-1 -90,63 -70,427 28,510 37,30 68,32 103,4 z"
         id="path36"
         />
      <path
         d="m 6473,2828 c 4,-342 8,-366 62,-424 56,-59 184,-70 274,-25 67,34 139,155 141,234 0,23 -4,27 -29,27 -25,0 -30,-4 -36,-37 -10,-53 -63,-103 -109,-103 -23,0 -43,7 -56,20 -19,19 -20,33 -20,320 v 300 h -116 -116 z"
         id="path38"
         />
      <path
         d="m 7923,2828 c 4,-342 8,-366 62,-424 56,-59 184,-70 274,-25 67,34 139,155 141,234 0,23 -4,27 -29,27 -25,0 -30,-4 -36,-37 -10,-53 -63,-103 -109,-103 -23,0 -43,7 -56,20 -19,19 -20,33 -20,320 v 300 h -116 -116 z"
         id="path40"
         />
      <path
         d="m 1709,3115 c -15,-8 -32,-28 -37,-45 -34,-96 95,-163 149,-77 48,78 -33,166 -112,122 z"
         id="path42"
         />
      <path
         d="m 1824,2596 c -62,-27 -64,-120 -3,-151 38,-20 61,-19 92,5 53,42 39,127 -24,149 -18,6 -32,11 -33,11 -1,-1 -15,-7 -32,-14 z"
         id="path44"
         />
      <path
         d="m 3593,2260 c -61,-37 -52,-126 15,-151 55,-21 112,19 112,79 0,46 -14,68 -51,81 -41,14 -38,14 -76,-9 z"
         id="path46"
         />
      <path
         d="m 2135,2165 c -17,-16 -25,-35 -25,-60 0,-25 8,-44 25,-60 49,-50 145,-17 145,49 0,83 -90,127 -145,71 z"
         id="path48"
         />
      <path
         d="m 3135,2018 c -32,-17 -45,-39 -45,-78 0,-74 92,-109 145,-55 67,66 -17,179 -100,133 z"
         id="path50"
         />
      <path
         d="m 2615,1989 c -53,-30 -62,-99 -20,-139 54,-50 145,-12 145,60 0,58 -76,106 -125,79 z"
         id="path52"
         />
   </g>
</svg>