<?xml version="1.0" encoding="UTF-8" standalone="no"?>
<svg
   version="1.0"
   width="50"
   viewBox="0 0 2239.947 212.67081"
   preserveAspectRatio="xMidYMid"
   id="svg6"
   sodipodi:docname="user.svg"
   height="42.650002"
   inkscape:version="1.2.2 (732a01da63, 2022-12-09)"
   xmlns:inkscape="http://www.inkscape.org/namespaces/inkscape"
   xmlns:sodipodi="http://sodipodi.sourceforge.net/DTD/sodipodi-0.dtd"
   xmlns="http://www.w3.org/2000/svg"
   xmlns:svg="http://www.w3.org/2000/svg">
  <defs
     id="defs10" />
  <sodipodi:namedview
     id="namedview8"
     pagecolor="#ffffff"
     bordercolor="#000000"
     borderopacity="0.25"
     inkscape:showpageshadow="2"
     inkscape:pageopacity="0.0"
     inkscape:pagecheckerboard="0"
     inkscape:deskcolor="#d1d1d1"
     showgrid="false"
     inkscape:zoom="5.6568543"
     inkscape:cx="-12.904699"
     inkscape:cy="33.852737"
     inkscape:window-width="1920"
     inkscape:window-height="1000"
     inkscape:window-x="1911"
     inkscape:window-y="-9"
     inkscape:window-maximized="1"
     inkscape:current-layer="svg6" />
  <g
     transform="matrix(0.1,0,0,-0.1,-0.05773268,1390.9272)"
     fill="#484848"
     stroke="none"
     id="g4">
    <path
       d="m 10595,22389 c -1184,-64 -2351,-314 -3447,-739 -341,-133 -599,-247 -948,-422 -815,-406 -1544,-885 -2225,-1462 -459,-388 -953,-882 -1341,-1341 C 1841,17488 1198,16405 750,15252 319,14142 74,12992 10,11775 -3,11530 -3,10870 10,10625 83,9254 383,7972 926,6718 c 121,-279 376,-787 532,-1058 415,-724 851,-1328 1407,-1950 128,-143 396,-422 401,-417 2,1 28,88 58,192 752,2595 2754,4667 5321,5508 650,213 1352,348 2010,387 105,6 224,14 265,17 l 75,7 -115,7 c -1596,105 -3048,1067 -3780,2504 -817,1604 -618,3551 505,4952 880,1098 2196,1733 3595,1733 1399,0 2713,-633 3595,-1733 1123,-1399 1322,-3348 505,-4952 -440,-864 -1151,-1575 -2015,-2015 -543,-276 -1168,-449 -1765,-489 l -115,-7 75,-7 c 41,-3 160,-11 265,-17 776,-46 1595,-222 2346,-505 925,-349 1763,-854 2535,-1527 166,-144 578,-556 722,-722 817,-937 1392,-1982 1728,-3141 30,-104 57,-191 58,-193 10,-10 424,437 632,683 977,1154 1724,2529 2161,3975 261,865 414,1750 463,2675 13,245 13,905 0,1150 -73,1372 -373,2652 -918,3910 -47,110 -157,342 -244,515 -406,815 -885,1544 -1462,2225 -387,457 -884,954 -1341,1341 -937,793 -2020,1436 -3173,1884 -1110,431 -2260,676 -3477,740 -219,11 -958,11 -1180,-1 z"
       id="path2" />
  </g>
</svg>
